<svg id="visual" viewBox="0 0 900 200" width="900" height="200" xmlns="http://www.w3.org/2000/svg" xmlns:xlink="http://www.w3.org/1999/xlink" version="1.1"><rect x="0" y="0" width="900" height="200" fill="#111827"></rect><path d="M0 64L21.5 65.5C43 67 86 70 128.8 64.3C171.7 58.7 214.3 44.3 257.2 44.3C300 44.3 343 58.7 385.8 57.7C428.7 56.7 471.3 40.3 514.2 32.7C557 25 600 26 642.8 30.7C685.7 35.3 728.3 43.7 771.2 45.5C814 47.3 857 42.7 878.5 40.3L900 38L900 201L878.5 201C857 201 814 201 771.2 201C728.3 201 685.7 201 642.8 201C600 201 557 201 514.2 201C471.3 201 428.7 201 385.8 201C343 201 300 201 257.2 201C214.3 201 171.7 201 128.8 201C86 201 43 201 21.5 201L0 201Z" fill="#101726"></path><path d="M0 95L21.5 93.7C43 92.3 86 89.7 128.8 88C171.7 86.3 214.3 85.7 257.2 82.3C300 79 343 73 385.8 69C428.7 65 471.3 63 514.2 65.8C557 68.7 600 76.3 642.8 77.5C685.7 78.7 728.3 73.3 771.2 74.2C814 75 857 82 878.5 85.5L900 89L900 201L878.5 201C857 201 814 201 771.2 201C728.3 201 685.7 201 642.8 201C600 201 557 201 514.2 201C471.3 201 428.7 201 385.8 201C343 201 300 201 257.2 201C214.3 201 171.7 201 128.8 201C86 201 43 201 21.5 201L0 201Z" fill="#0e2132"></path><path d="M0 115L21.5 112.8C43 110.7 86 106.3 128.8 106.7C171.7 107 214.3 112 257.2 112C300 112 343 107 385.8 104.7C428.7 102.3 471.3 102.7 514.2 103.3C557 104 600 105 642.8 105.3C685.7 105.7 728.3 105.3 771.2 107C814 108.7 857 112.3 878.5 114.2L900 116L900 201L878.5 201C857 201 814 201 771.2 201C728.3 201 685.7 201 642.8 201C600 201 557 201 514.2 201C471.3 201 428.7 201 385.8 201C343 201 300 201 257.2 201C214.3 201 171.7 201 128.8 201C86 201 43 201 21.5 201L0 201Z" fill="#092c3c"></path><path d="M0 103L21.5 108C43 113 86 123 128.8 128.3C171.7 133.7 214.3 134.3 257.2 135C300 135.7 343 136.3 385.8 132.7C428.7 129 471.3 121 514.2 116.5C557 112 600 111 642.8 110.5C685.7 110 728.3 110 771.2 112.3C814 114.7 857 119.3 878.5 121.7L900 124L900 201L878.5 201C857 201 814 201 771.2 201C728.3 201 685.7 201 642.8 201C600 201 557 201 514.2 201C471.3 201 428.7 201 385.8 201C343 201 300 201 257.2 201C214.3 201 171.7 201 128.8 201C86 201 43 201 21.5 201L0 201Z" fill="#033845"></path><path d="M0 162L21.5 158.2C43 154.3 86 146.7 128.8 144.7C171.7 142.7 214.3 146.3 257.2 147.3C300 148.3 343 146.7 385.8 144.2C428.7 141.7 471.3 138.3 514.2 138.3C557 138.3 600 141.7 642.8 143.5C685.7 145.3 728.3 145.7 771.2 146.7C814 147.7 857 149.3 878.5 150.2L900 151L900 201L878.5 201C857 201 814 201 771.2 201C728.3 201 685.7 201 642.8 201C600 201 557 201 514.2 201C471.3 201 428.7 201 385.8 201C343 201 300 201 257.2 201C214.3 201 171.7 201 128.8 201C86 201 43 201 21.5 201L0 201Z" fill="#00434c"></path><path d="M0 181L21.5 177.2C43 173.3 86 165.7 128.8 164.8C171.7 164 214.3 170 257.2 174.2C300 178.3 343 180.7 385.8 180C428.7 179.3 471.3 175.7 514.2 173.5C557 171.3 600 170.7 642.8 170.8C685.7 171 728.3 172 771.2 174.2C814 176.3 857 179.7 878.5 181.3L900 183L900 201L878.5 201C857 201 814 201 771.2 201C728.3 201 685.7 201 642.8 201C600 201 557 201 514.2 201C471.3 201 428.7 201 385.8 201C343 201 300 201 257.2 201C214.3 201 171.7 201 128.8 201C86 201 43 201 21.5 201L0 201Z" fill="#044e51"></path></svg>